<svg width="32" height="32" viewBox="0 0 32 32" fill="none" xmlns="http://www.w3.org/2000/svg">
<path d="M9 28C9.55228 28 10 27.5523 10 27C10 26.4477 9.55228 26 9 26C8.44772 26 8 26.4477 8 27C8 27.5523 8.44772 28 9 28Z" fill="#0D47A1"/>
<path d="M24 28C24.5523 28 25 27.5523 25 27C25 26.4477 24.5523 26 24 26C23.4477 26 23 26.4477 23 27C23 27.5523 23.4477 28 24 28Z" fill="#0D47A1"/>
<path d="M5 8H26.8019C26.9484 8 27.093 8.03217 27.2257 8.09424C27.3584 8.15632 27.4758 8.24677 27.5696 8.35921C27.6635 8.47166 27.7315 8.60334 27.7688 8.74496C27.8062 8.88659 27.812 9.03468 27.7858 9.17879L25.6052 21.1788C25.5634 21.4092 25.4419 21.6176 25.2621 21.7677C25.0823 21.9178 24.8555 22 24.6213 22H8.38982C8.15572 22 7.92904 21.9179 7.74927 21.7679C7.5695 21.618 7.44804 21.4097 7.40604 21.1794L4.24055 3.8206C4.19855 3.5903 4.07709 3.38203 3.89732 3.23208C3.71755 3.08213 3.49087 3 3.25677 3H1" stroke="#0D47A1" stroke-linecap="round" stroke-linejoin="round"/>
</svg>
