<svg width="179" height="151" viewBox="0 0 179 151" fill="none" xmlns="http://www.w3.org/2000/svg">
<path fill-rule="evenodd" clip-rule="evenodd" d="M119.091 11.9326L98.0519 23.551L98.0517 23.5513C98.0507 23.5513 98.0497 23.5513 98.0488 23.5513C94.6483 24.4014 89.7135 29.0874 89.0136 34.1476L88.9456 34.2274V34.8301C88.926 35.1521 88.9245 35.4749 88.9424 35.7978C88.9424 36.641 88.9276 37.3803 88.9146 38.0276C88.8926 39.1244 88.8759 39.9574 88.9456 40.5858V44.9038L119.091 27.9472V11.9326Z" fill="#FF5959"/>
<path d="M98.3623 0L119.087 11.9324L104.957 20.0968L98.3623 16.3286V0Z" fill="#E12D48"/>
<path d="M17.8434 122.979C17.8434 124.63 17.1389 125.888 15.7299 126.753C17.7427 127.538 18.7491 129.098 18.7491 131.433C18.7491 133.607 18.105 135.297 16.8168 136.505C15.5287 137.713 13.7071 138.317 11.3521 138.317H2.62669C2.22413 138.317 2.02285 138.115 2.02285 137.713V117.333C2.02285 116.931 2.22413 116.73 2.62669 116.73H11.2012C13.2945 116.73 14.9248 117.283 16.0922 118.39C17.2596 119.477 17.8434 121.007 17.8434 122.979ZM7.91025 133.154H10.8087C11.3924 133.154 11.8553 132.993 12.1975 132.671C12.5397 132.329 12.7108 131.846 12.7108 131.222C12.7108 130.014 12.0063 129.41 10.5973 129.41H7.91025V133.154ZM11.8352 123.311C11.8352 122.265 11.2615 121.741 10.1143 121.741H7.91025V124.911H10.1143C11.2615 124.911 11.8352 124.378 11.8352 123.311ZM34.8538 128.716V131.493C34.8538 131.896 34.6526 132.097 34.25 132.097H26.2794V132.248C26.2794 133.536 26.9637 134.18 28.3324 134.18C29.6206 134.18 30.7679 133.899 31.7743 133.335C32.0963 133.134 32.3681 133.184 32.5895 133.486L34.401 135.962C34.6224 136.284 34.5922 136.566 34.3104 136.807C32.6398 138.095 30.5767 138.739 28.1211 138.739C25.8869 138.739 24.0854 138.166 22.7167 137.018C21.348 135.851 20.6637 134.211 20.6637 132.097V128.716C20.6637 126.522 21.3179 124.881 22.6262 123.794C23.9345 122.687 25.7057 122.134 27.9399 122.134C30.0936 122.134 31.7843 122.677 33.0121 123.764C34.2399 124.831 34.8538 126.481 34.8538 128.716ZM29.5099 128.384C29.5099 127.176 28.9664 126.572 27.8795 126.572C26.8128 126.572 26.2794 127.176 26.2794 128.384V128.867H29.5099V128.384ZM37.6657 123.281C39.759 122.516 41.9831 122.134 44.3381 122.134C46.532 122.134 48.3033 122.788 49.6518 124.096C51.0004 125.405 51.6747 127.095 51.6747 129.169V131.856C51.6747 133.969 51.091 135.65 49.9236 136.898C48.7561 138.125 47.1962 138.739 45.2438 138.739C44.318 138.739 43.5128 138.619 42.8285 138.377V143.449C42.8285 143.852 42.6272 144.053 42.2247 144.053H37.8468C37.4443 144.053 37.243 143.852 37.243 143.449V123.945C37.243 123.583 37.3839 123.362 37.6657 123.281ZM44.2777 133.939C45.425 133.939 45.9986 133.295 45.9986 132.007V129.018C45.9986 127.729 45.4149 127.085 44.2475 127.085C43.7443 127.085 43.2713 127.166 42.8285 127.327V133.697C43.2713 133.858 43.7544 133.939 44.2777 133.939ZM66.4557 137.139C64.9461 138.206 63.1849 138.739 61.1721 138.739C58.7769 138.739 56.9352 138.125 55.647 136.898C54.3589 135.65 53.7148 133.919 53.7148 131.705V128.987C53.7148 126.854 54.3589 125.183 55.647 123.976C56.9352 122.748 58.7769 122.134 61.1721 122.134C62.9635 122.134 64.6241 122.587 66.1538 123.492C66.496 123.714 66.5563 123.996 66.3349 124.338L64.3725 127.297C64.1913 127.599 63.9095 127.669 63.5271 127.508C62.883 127.186 62.1886 127.025 61.4439 127.025C60.8199 127.025 60.3167 127.196 59.9343 127.538C59.572 127.88 59.3908 128.363 59.3908 128.987V131.705C59.3908 132.429 59.582 132.973 59.9645 133.335C60.3469 133.677 60.84 133.848 61.4439 133.848C62.249 133.848 63.0138 133.627 63.7384 133.184C64.0806 132.983 64.3624 133.043 64.5838 133.365L66.5463 136.324C66.7677 136.646 66.7375 136.918 66.4557 137.139ZM76.4065 138.317H72.0287C71.6261 138.317 71.4248 138.115 71.4248 137.713V127.387H68.1037C67.7012 127.387 67.4999 127.186 67.4999 126.783V123.16C67.4999 122.758 67.7012 122.557 68.1037 122.557H80.3012C80.7038 122.557 80.9051 122.758 80.9051 123.16V126.783C80.9051 127.186 80.7038 127.387 80.3012 127.387H77.0103V137.713C77.0103 138.115 76.8091 138.317 76.4065 138.317ZM82.5616 123.734C84.353 122.667 86.4966 122.134 88.9925 122.134C93.5816 122.134 95.8762 124.559 95.8762 129.41V137.26C95.8762 137.622 95.7051 137.844 95.3629 137.924C93.5112 138.468 91.3978 138.739 89.0227 138.739C84.0712 138.739 81.5955 136.958 81.5955 133.395C81.5955 130.336 83.7794 128.806 88.1471 128.806C88.9321 128.806 89.6466 128.857 90.2907 128.957V128.897C90.2907 128.253 90.1398 127.76 89.8378 127.417C89.5359 127.075 88.9824 126.904 88.1773 126.904C86.8287 126.904 85.6915 127.136 84.7656 127.599C84.4033 127.8 84.1316 127.729 83.9504 127.387L82.5616 124.459C82.3603 124.116 82.3603 123.875 82.5616 123.734ZM87.2715 133.184C87.2715 134.009 87.8452 134.422 88.9925 134.422C89.4152 134.422 89.8479 134.382 90.2907 134.301V132.248C89.8278 132.147 89.385 132.097 88.9623 132.097C87.8351 132.097 87.2715 132.459 87.2715 133.184ZM113 138.317H107.958C107.636 138.317 107.405 138.176 107.264 137.894L104.909 133.275L104.154 134.271V137.713C104.154 138.115 103.953 138.317 103.55 138.317H99.2631C98.8605 138.317 98.6593 138.115 98.6593 137.713V123.16C98.6593 122.758 98.8605 122.557 99.2631 122.557H103.55C103.953 122.557 104.154 122.758 104.154 123.16V128.142L106.811 122.979C106.952 122.697 107.183 122.557 107.505 122.557H112.306C112.547 122.557 112.709 122.627 112.789 122.768C112.87 122.909 112.839 123.08 112.698 123.281L108.532 129.531L113.393 137.592C113.514 137.793 113.534 137.964 113.453 138.105C113.393 138.246 113.242 138.317 113 138.317ZM128.598 132.067C128.598 134.18 127.944 135.821 126.636 136.988C125.348 138.156 123.536 138.739 121.201 138.739C118.866 138.739 117.045 138.156 115.737 136.988C114.448 135.821 113.804 134.18 113.804 132.067V128.836C113.804 126.723 114.448 125.083 115.737 123.915C117.045 122.728 118.866 122.134 121.201 122.134C123.536 122.134 125.348 122.728 126.636 123.915C127.944 125.083 128.598 126.723 128.598 128.836V132.067ZM119.48 132.067C119.48 133.234 120.054 133.818 121.201 133.818C122.349 133.818 122.922 133.234 122.922 132.067V128.836C122.922 127.649 122.349 127.055 121.201 127.055C120.054 127.055 119.48 127.649 119.48 128.836V132.067Z" fill="#0D47A1"/>
<path d="M143.802 144.053H139.575C139.173 144.053 138.971 143.852 138.971 143.449V138.317H137.522C135.61 138.317 133.98 137.723 132.631 136.535C131.303 135.348 130.638 133.587 130.638 131.252V129.652C130.638 127.317 131.303 125.556 132.631 124.368C133.98 123.16 135.61 122.557 137.522 122.557H138.971V117.333C138.971 116.931 139.173 116.73 139.575 116.73H143.802C144.204 116.73 144.406 116.931 144.406 117.333V122.557H145.855C147.767 122.557 149.387 123.16 150.716 124.368C152.064 125.556 152.739 127.317 152.739 129.652V131.252C152.739 133.587 152.064 135.348 150.716 136.535C149.387 137.723 147.767 138.317 145.855 138.317H144.406V143.449C144.406 143.852 144.204 144.053 143.802 144.053ZM136.103 131.342C136.103 132.771 136.757 133.486 138.065 133.486H138.971V127.387H138.005C136.737 127.387 136.103 128.082 136.103 129.47V131.342ZM144.406 133.486H145.312C146.62 133.486 147.274 132.771 147.274 131.342V129.47C147.274 128.082 146.64 127.387 145.372 127.387H144.406V133.486ZM167.891 144.053H163.664C163.261 144.053 163.06 143.852 163.06 143.449V138.317H161.611C159.698 138.317 158.068 137.723 156.72 136.535C155.391 135.348 154.727 133.587 154.727 131.252V129.652C154.727 127.317 155.391 125.556 156.72 124.368C158.068 123.16 159.698 122.557 161.611 122.557H163.06V117.333C163.06 116.931 163.261 116.73 163.664 116.73H167.891C168.293 116.73 168.494 116.931 168.494 117.333V122.557H169.944C171.856 122.557 173.476 123.16 174.804 124.368C176.153 125.556 176.827 127.317 176.827 129.652V131.252C176.827 133.587 176.153 135.348 174.804 136.535C173.476 137.723 171.856 138.317 169.944 138.317H168.494V143.449C168.494 143.852 168.293 144.053 167.891 144.053ZM160.192 131.342C160.192 132.771 160.846 133.486 162.154 133.486H163.06V127.387H162.094C160.826 127.387 160.192 128.082 160.192 129.47V131.342ZM168.494 133.486H169.4C170.708 133.486 171.363 132.771 171.363 131.342V129.47C171.363 128.082 170.729 127.387 169.46 127.387H168.494V133.486Z" fill="#EC2E4A"/>
<path d="M57.0283 0L72.1242 8.38661V53.6743L57.0283 62.0609V0Z" fill="#1976D2"/>
<path d="M105.673 36.9014L120.769 45.288V61.2225L105.673 53.6746V36.9014Z" fill="#0D47A1"/>
<path d="M57.0283 53.6745V44.4492L88.8974 63.7384V80.5117L57.0283 62.0611V53.6745Z" fill="#0D47A1"/>
<path d="M120.768 53.674V45.2874L88.8985 63.7379V80.5111L120.768 62.0606V53.674Z" fill="#1976D2"/>
</svg>
